<mxfile host="app.diagrams.net" modified="2023-10-04T13:31:25.172Z" agent="Mozilla/5.0 (Windows NT 10.0; Win64; x64) AppleWebKit/537.36 (KHTML, like Gecko) Chrome/117.0.0.0 Safari/537.36 Edg/117.0.2045.47" etag="4vAdC6WVvM9o0r33QwGg" version="22.0.2" type="device">
  <diagram name="Página-1" id="8JlHdNIwiIcuua0ER65D">
    <mxGraphModel dx="1386" dy="785" grid="1" gridSize="10" guides="1" tooltips="1" connect="1" arrows="1" fold="1" page="1" pageScale="1" pageWidth="1169" pageHeight="827" math="0" shadow="0">
      <root>
        <mxCell id="0" />
        <mxCell id="1" parent="0" />
        <mxCell id="_pd3mGPc1isPpjpf8l4D-8" value="" style="edgeStyle=orthogonalEdgeStyle;rounded=0;orthogonalLoop=1;jettySize=auto;html=1;" edge="1" parent="1" source="_pd3mGPc1isPpjpf8l4D-1" target="_pd3mGPc1isPpjpf8l4D-7">
          <mxGeometry relative="1" as="geometry" />
        </mxCell>
        <mxCell id="_pd3mGPc1isPpjpf8l4D-1" value="Vendedor" style="shape=umlActor;verticalLabelPosition=bottom;verticalAlign=top;html=1;outlineConnect=0;" vertex="1" parent="1">
          <mxGeometry x="270" y="250" width="60" height="120" as="geometry" />
        </mxCell>
        <mxCell id="_pd3mGPc1isPpjpf8l4D-12" value="" style="edgeStyle=orthogonalEdgeStyle;rounded=0;orthogonalLoop=1;jettySize=auto;html=1;entryX=0;entryY=0.5;entryDx=0;entryDy=0;" edge="1" parent="1" source="_pd3mGPc1isPpjpf8l4D-7" target="_pd3mGPc1isPpjpf8l4D-11">
          <mxGeometry relative="1" as="geometry" />
        </mxCell>
        <mxCell id="_pd3mGPc1isPpjpf8l4D-7" value="Vender&lt;br&gt;automóvel" style="ellipse;whiteSpace=wrap;html=1;align=center;" vertex="1" parent="1">
          <mxGeometry x="430" y="280" width="110" height="60" as="geometry" />
        </mxCell>
        <mxCell id="_pd3mGPc1isPpjpf8l4D-11" value="Escolher uma&lt;br&gt;opção&lt;br&gt;ativa" style="ellipse;whiteSpace=wrap;html=1;align=center;" vertex="1" parent="1">
          <mxGeometry x="640" y="190" width="120" height="60" as="geometry" />
        </mxCell>
      </root>
    </mxGraphModel>
  </diagram>
</mxfile>
